<?xml version="1.0" standalone="no"?>
<!DOCTYPE svg PUBLIC "-//W3C//DTD SVG 20010904//EN"
 "http://www.w3.org/TR/2001/REC-SVG-20010904/DTD/svg10.dtd">
<svg version="1.0" xmlns="http://www.w3.org/2000/svg"
 width="1332.000000pt" height="1332.000000pt" viewBox="0 0 1332.000000 1332.000000"
 preserveAspectRatio="xMidYMid meet">
<metadata>
Created by potrace 1.11, written by Peter Selinger 2001-2013
</metadata>
<g transform="translate(0.000000,1332.000000) scale(0.100000,-0.100000)"
fill="#000000" stroke="none">
<path d="M2225 13304 c-226 -55 -411 -248 -453 -474 -10 -54 -4 -265 8 -265 2
0 3 -5 13 -55 3 -14 10 -40 16 -57 5 -18 8 -33 6 -33 -3 0 -1 -10 4 -23 5 -13
12 -39 15 -58 3 -19 9 -45 12 -59 4 -14 7 -35 8 -47 0 -13 4 -23 7 -23 6 0 11
-23 23 -101 2 -15 6 -31 9 -36 4 -6 9 -29 12 -53 3 -23 7 -46 10 -50 3 -4 12
-41 21 -81 20 -94 38 -171 64 -284 11 -49 23 -101 25 -115 3 -14 8 -36 12 -50
11 -44 14 -55 18 -75 10 -54 17 -85 31 -138 8 -32 12 -62 9 -67 -3 -6 -2 -10
2 -10 5 0 10 -10 11 -22 3 -36 7 -52 13 -63 4 -5 9 -26 13 -45 6 -35 12 -63
20 -97 12 -50 25 -111 29 -133 3 -14 10 -43 16 -65 12 -44 41 -169 47 -200 2
-11 6 -31 9 -45 3 -14 8 -41 11 -60 4 -19 9 -39 13 -45 3 -5 7 -21 9 -35 2
-14 12 -63 23 -110 12 -47 22 -94 25 -105 2 -11 6 -30 9 -42 3 -13 7 -35 10
-50 3 -16 8 -36 11 -45 3 -10 7 -30 10 -45 3 -16 10 -46 16 -68 5 -22 12 -51
15 -65 2 -14 25 -113 50 -220 24 -107 47 -206 49 -220 3 -14 7 -31 10 -39 2
-8 7 -30 10 -50 8 -45 9 -52 17 -71 3 -8 8 -28 11 -45 3 -16 9 -46 14 -65 5
-19 9 -38 10 -43 1 -4 4 -17 7 -30 3 -12 7 -33 9 -47 3 -14 7 -34 10 -45 6
-25 66 -292 71 -314 2 -9 15 -65 30 -126 15 -60 28 -121 30 -135 6 -32 13 -65
15 -65 2 0 4 -10 14 -60 11 -60 27 -130 33 -145 3 -8 7 -24 9 -35 1 -11 8 -42
14 -70 6 -27 13 -59 16 -70 3 -17 61 -274 109 -480 8 -38 18 -81 21 -95 3 -14
7 -32 9 -40 2 -8 7 -31 11 -50 7 -42 9 -50 17 -70 3 -8 11 -40 17 -70 11 -57
17 -87 24 -117 2 -10 16 -70 31 -133 14 -63 28 -122 30 -130 2 -8 13 -58 25
-110 12 -52 23 -104 26 -115 3 -11 7 -31 10 -45 2 -14 7 -36 11 -50 9 -37 11
-43 17 -70 3 -14 8 -36 11 -50 4 -14 8 -32 9 -40 6 -41 19 -96 24 -104 3 -6 7
-19 8 -30 2 -22 9 -56 25 -121 5 -22 12 -50 14 -62 8 -35 14 -64 25 -113 6
-25 13 -56 16 -70 3 -14 14 -62 25 -107 11 -45 22 -92 23 -105 2 -13 6 -30 9
-38 4 -8 8 -28 11 -45 2 -16 5 -30 6 -30 1 0 3 -9 5 -20 2 -11 9 -47 17 -80 7
-33 11 -63 10 -67 -1 -5 2 -8 7 -8 6 0 10 -8 9 -17 0 -10 3 -30 6 -45 3 -16 8
-38 10 -50 3 -13 10 -39 15 -58 6 -19 11 -47 11 -62 0 -16 5 -28 11 -28 5 0 8
-4 5 -9 -3 -4 1 -33 9 -64 8 -30 16 -66 19 -80 2 -14 19 -87 37 -164 17 -76
33 -147 35 -158 1 -11 3 -20 4 -20 2 0 6 -18 14 -62 3 -18 10 -43 16 -57 5
-15 8 -26 5 -26 -2 0 1 -15 6 -32 5 -18 11 -44 14 -58 3 -14 7 -36 11 -50 3
-14 7 -34 9 -45 3 -11 9 -38 14 -60 5 -22 12 -51 14 -65 3 -14 12 -54 21 -90
8 -36 18 -76 20 -90 3 -14 15 -65 26 -115 12 -49 23 -101 26 -115 16 -82 48
-198 59 -215 18 -28 72 -85 81 -85 4 0 15 -6 23 -14 28 -24 109 -49 168 -51
108 -4 192 39 247 125 20 30 40 60 46 67 5 7 10 17 10 23 0 5 5 10 10 10 6 0
10 5 10 11 0 6 14 28 30 49 17 21 30 41 30 44 0 3 8 14 18 24 25 27 86 102 96
120 13 23 254 261 315 312 73 60 186 145 246 183 28 17 52 35 53 39 2 5 7 8
12 8 5 0 41 19 82 43 89 52 221 116 326 158 75 30 227 84 247 88 6 1 28 7 50
13 50 14 63 17 97 22 15 3 31 7 36 10 5 3 31 8 58 12 27 3 52 8 56 10 3 2 28
7 55 10 26 3 59 7 73 9 135 23 513 23 660 0 19 -3 49 -7 65 -9 34 -4 112 -17
135 -22 8 -2 32 -8 53 -13 20 -5 37 -7 37 -4 0 3 7 0 15 -7 8 -7 15 -10 15 -7
0 3 30 -3 68 -14 37 -11 74 -22 83 -24 140 -31 572 -236 666 -315 7 -5 15 -10
18 -10 7 0 196 -142 245 -185 46 -39 268 -262 299 -299 13 -16 59 -77 102
-135 43 -58 83 -112 89 -118 6 -7 7 -13 3 -13 -4 0 -3 -4 2 -8 6 -4 16 -19 23
-33 40 -76 130 -166 155 -152 4 2 7 0 7 -5 0 -5 6 -9 13 -10 30 -2 77 -11 86
-16 5 -4 12 -2 16 3 3 6 12 8 19 5 14 -5 121 32 144 50 64 51 111 114 119 158
1 10 19 88 39 175 20 87 37 165 39 173 2 8 12 53 23 100 11 46 18 88 16 92 -3
4 -1 8 3 8 5 0 9 8 10 18 0 9 22 109 48 222 26 113 48 212 50 220 2 8 12 54
24 102 11 48 23 99 25 113 3 14 7 33 10 43 3 9 7 28 10 42 2 14 12 57 21 95
19 79 18 73 40 175 9 41 18 83 21 93 2 9 6 27 10 40 3 12 7 31 9 42 7 31 15
63 19 83 19 79 23 102 18 107 -3 3 0 5 7 5 7 0 10 4 7 8 -3 4 0 26 5 48 5 21
12 50 15 64 3 14 7 33 10 42 3 10 7 30 10 45 3 16 7 36 10 45 3 9 7 25 9 35 2
10 14 61 26 113 12 52 23 104 25 115 2 11 8 40 14 65 7 25 13 52 15 60 32 149
48 218 52 230 3 8 7 26 9 40 2 14 6 36 10 50 4 14 9 32 10 40 2 8 10 42 18 76
8 34 18 73 21 87 3 15 7 39 11 54 3 15 18 81 34 147 16 67 31 132 34 146 3 14
7 35 10 48 8 29 14 59 23 102 9 46 10 50 13 53 2 3 9 36 14 72 3 17 5 30 6 30
2 0 1 -2 45 185 20 85 38 164 39 175 2 11 20 90 40 175 20 85 39 166 42 180 3
14 6 30 8 35 8 31 29 132 29 143 0 6 3 12 7 12 3 0 7 10 8 23 2 31 9 71 16 95
4 11 9 30 11 41 3 12 7 31 10 44 3 12 8 36 11 52 2 17 10 48 15 70 6 22 13 47
14 55 2 8 9 38 15 65 6 28 13 58 15 68 2 10 6 26 9 35 3 9 7 28 10 42 4 23 34
153 55 242 5 20 6 39 3 42 -3 4 0 6 7 6 7 0 10 4 7 8 -3 4 0 26 5 48 9 36 16
66 24 104 2 8 4 15 5 15 1 0 3 11 5 25 2 14 6 36 10 50 3 14 8 36 11 50 2 14
7 31 10 39 2 8 7 30 10 50 3 20 10 44 15 54 5 9 8 17 5 17 -3 0 0 15 5 33 5
17 12 45 14 60 3 16 14 66 25 111 10 45 21 93 24 106 3 14 9 40 15 58 5 18 10
35 10 37 0 3 2 18 5 33 4 15 9 37 11 50 3 12 8 32 11 45 3 12 7 33 9 47 2 14
4 25 5 25 1 0 4 11 7 25 7 39 11 55 13 55 1 0 3 7 5 15 4 21 35 161 40 185 9
40 15 66 20 88 3 12 20 90 39 172 19 83 37 161 40 175 3 14 12 54 21 90 23
100 56 243 60 265 2 11 4 21 5 23 2 1 3 10 5 20 1 9 5 24 8 32 3 8 8 29 10 45
3 17 12 62 22 100 9 39 19 81 21 95 3 14 10 43 16 65 5 22 12 50 14 63 3 12
13 59 24 105 10 45 21 93 24 107 3 14 17 75 31 135 15 61 28 119 30 130 5 28
41 191 55 245 19 79 20 84 25 115 3 17 8 38 11 47 3 9 7 25 9 35 2 10 10 47
19 83 18 78 15 215 -8 278 -8 23 -16 46 -17 50 -22 84 -128 225 -201 270 -16
9 -28 20 -28 24 0 4 -6 8 -14 8 -8 0 -21 6 -28 13 -17 16 -66 35 -148 58 -62
17 -248 18 -4445 18 -3786 -1 -4388 -3 -4440 -15z m2027 -1348 c37 -1 68 3 68
7 0 5 5 5 11 1 16 -10 149 -11 149 -1 0 5 5 5 11 1 16 -10 149 -11 149 -1 0 5
5 5 11 1 16 -10 149 -11 149 -1 0 5 5 5 11 1 16 -10 149 -11 149 -1 0 5 5 5
12 1 15 -9 439 -11 444 -2 3 4 11 5 19 2 22 -9 206 -11 237 -3 14 4 29 5 32 1
9 -8 187 -8 192 0 3 4 11 5 19 2 22 -9 206 -11 237 -3 14 4 29 5 32 1 9 -8
187 -8 193 1 2 4 9 4 15 1 9 -6 278 -9 303 -4 6 1 21 1 35 0 60 -6 197 -5 222
1 14 4 29 5 32 1 9 -8 187 -8 192 0 3 4 11 5 19 2 22 -9 206 -11 237 -3 14 4
29 5 32 1 8 -8 187 -8 192 0 3 4 14 4 27 2 38 -9 157 -9 157 -1 0 5 5 5 11 1
16 -10 149 -11 149 -1 0 5 5 5 11 1 16 -10 149 -11 149 -1 0 5 5 5 11 1 16
-10 149 -11 149 -1 0 5 5 5 11 1 16 -10 149 -11 149 -1 0 5 5 5 11 1 16 -10
149 -11 149 -1 0 5 5 5 11 1 16 -10 149 -11 149 -1 0 5 5 5 11 1 6 -3 110 -7
232 -8 147 -1 229 -6 243 -14 12 -6 24 -9 27 -6 3 3 42 -13 88 -36 55 -28 101
-60 138 -98 69 -71 91 -99 84 -106 -4 -3 -2 -6 4 -6 12 0 29 -35 57 -121 18
-53 22 -86 20 -165 -1 -54 -4 -106 -6 -114 -17 -63 -51 -150 -59 -150 -5 0 -9
-6 -9 -13 0 -8 -9 -22 -20 -32 -11 -10 -19 -20 -17 -22 7 -6 -88 -101 -95 -96
-5 2 -8 0 -8 -5 0 -11 -69 -50 -138 -79 -29 -12 -53 -22 -55 -21 -1 0 -24 -3
-52 -8 -65 -9 -5072 -9 -5150 0 -65 9 -166 42 -177 60 -4 6 -8 7 -8 3 0 -11
-89 51 -120 84 -75 78 -125 159 -145 234 -5 17 -10 37 -12 45 -2 8 -6 52 -8
96 -4 83 11 170 39 239 9 20 15 38 15 42 -1 3 3 9 8 12 5 3 19 22 31 42 19 32
84 97 138 139 25 20 125 69 150 74 10 3 37 8 59 13 22 5 52 9 68 8 15 -1 27 2
27 7 0 5 5 6 12 2 6 -4 42 -7 80 -8z m4603 -2115 c0 -2 17 -4 38 -6 20 -2 75
-22 121 -44 107 -52 196 -137 249 -238 21 -40 35 -73 31 -73 -3 0 -2 -6 4 -12
18 -24 31 -116 28 -200 -6 -137 -63 -264 -160 -360 -55 -55 -147 -115 -184
-123 -12 -2 -28 -7 -34 -11 -14 -9 -18 -10 -93 -22 -27 -4 -1029 -7 -2225 -7
-1716 1 -2180 3 -2197 13 -13 7 -23 10 -23 6 0 -3 -7 -1 -15 6 -8 7 -15 10
-15 7 0 -23 -166 77 -217 130 -49 50 -110 141 -119 178 -2 6 -10 30 -19 55
-32 88 -26 259 12 347 9 21 17 43 19 49 5 27 63 104 118 157 59 57 153 114
205 124 14 2 28 7 31 11 3 4 12 7 20 7 8 -1 23 2 34 5 17 6 4391 6 4391 1z
m-375 -2120 c46 -12 79 -25 115 -44 11 -6 34 -17 50 -26 53 -26 159 -142 192
-211 42 -87 51 -116 59 -175 3 -27 8 -54 11 -58 3 -4 -1 -14 -7 -22 -8 -9 -8
-15 -2 -15 6 0 9 -8 7 -17 -2 -10 -4 -18 -5 -18 -1 0 -3 -18 -5 -40 -10 -97
-84 -235 -164 -307 -68 -60 -79 -68 -91 -68 -5 0 -10 -4 -10 -8 0 -4 -15 -14
-32 -21 -57 -24 -98 -39 -98 -36 0 2 -19 -2 -42 -9 -33 -10 -443 -12 -1803
-10 -968 1 -1760 2 -1760 3 0 2 -9 4 -20 6 -203 38 -376 200 -430 404 -17 66
-17 207 0 272 55 208 241 378 445 406 19 3 36 6 37 7 1 0 790 1 1755 0 1346 0
1763 -3 1798 -13z"/>
<path d="M6567 4024 c-1 -1 -40 -5 -87 -9 -47 -3 -98 -9 -115 -11 -16 -3 -39
-7 -50 -8 -11 -2 -31 -6 -45 -11 -14 -4 -36 -9 -50 -11 -14 -1 -34 -5 -45 -8
-81 -20 -139 -37 -149 -43 -6 -4 -18 -9 -27 -10 -62 -10 -310 -134 -448 -225
-126 -83 -189 -135 -306 -253 -245 -245 -403 -506 -505 -830 -28 -91 -31 -104
-54 -225 -37 -195 -42 -467 -12 -670 18 -124 71 -326 105 -405 10 -22 24 -57
25 -65 1 -3 22 -48 47 -100 126 -263 343 -534 559 -700 25 -19 47 -38 48 -42
2 -5 10 -8 17 -8 7 0 15 -4 17 -9 2 -5 32 -27 68 -50 36 -22 70 -44 76 -48 19
-15 174 -97 184 -98 3 -1 27 -11 54 -23 28 -13 60 -25 73 -28 13 -4 26 -10 28
-15 3 -4 12 -6 20 -2 8 3 15 0 15 -6 0 -6 3 -10 8 -9 4 1 34 -6 67 -15 33 -10
74 -22 90 -27 29 -8 99 -23 120 -25 6 -1 29 -5 53 -9 23 -4 54 -10 70 -13 54
-9 408 -11 462 -2 30 5 75 12 100 15 85 11 95 13 155 29 33 9 67 18 75 19 64
14 81 20 86 27 3 5 11 9 19 9 8 0 26 5 42 12 33 13 30 12 66 22 15 5 27 12 27
17 0 5 7 6 15 3 8 -4 15 -1 15 5 0 6 5 11 11 11 12 0 99 40 109 50 3 3 23 14
45 25 39 19 145 85 155 95 3 4 22 17 43 29 21 13 46 31 55 40 10 9 37 33 62
53 67 53 189 174 244 243 27 33 52 62 56 65 9 7 120 174 156 235 62 106 169
358 189 448 2 12 11 49 20 82 15 60 17 69 31 155 13 84 14 95 20 195 2 55 6
111 8 125 1 14 0 29 -2 33 -2 5 -6 50 -9 100 -7 127 -7 127 -13 127 -3 0 -5
15 -6 33 -2 64 -35 211 -75 327 -28 84 -88 235 -101 256 -4 6 -26 46 -49 90
-23 43 -47 82 -53 86 -6 5 -7 8 -1 8 6 0 2 5 -7 11 -10 5 -18 14 -18 20 0 11
-91 138 -135 188 -116 134 -277 283 -365 341 -12 8 -28 20 -34 25 -22 20 -96
65 -106 65 -5 0 -10 4 -10 9 0 5 -8 11 -17 14 -10 3 -49 23 -88 44 -58 32
-196 95 -215 99 -3 0 -12 3 -20 7 -38 15 -117 40 -137 42 -12 2 -27 6 -32 10
-6 3 -19 8 -28 10 -10 1 -54 11 -98 20 -86 18 -95 19 -200 30 -68 7 -293 14
-298 9z"/>
</g>
</svg>
